<svg xmlns="http://www.w3.org/2000/svg" viewBox="0 0 100 100" fill="none">
  <!-- Toque de chef -->
  <path d="M20 35 L80 35 L85 25 L75 20 L25 20 L15 25 Z" fill="#386641" stroke="#6a994e" stroke-width="2"/>
  <path d="M25 20 L75 20 L70 15 L30 15 Z" fill="#a7c957"/>
  
  <!-- Base de la toque -->
  <ellipse cx="50" cy="35" rx="30" ry="8" fill="#386641"/>
  
  <!-- Détails décoratifs sur la toque -->
  <circle cx="35" cy="30" r="2" fill="#a7c957"/>
  <circle cx="50" cy="28" r="2" fill="#a7c957"/>
  <circle cx="65" cy="30" r="2" fill="#a7c957"/>
  
  <!-- Face du chef -->
  <circle cx="50" cy="60" r="18" fill="#f2e8cf" stroke="#6a994e" stroke-width="1.5"/>
  
  <!-- Yeux -->
  <circle cx="45" cy="55" r="3" fill="#386641"/>
  <circle cx="55" cy="55" r="3" fill="#386641"/>
  
  <!-- Nez -->
  <ellipse cx="50" cy="62" rx="2" ry="3" fill="#6a994e" opacity="0.3"/>
  
  <!-- Sourire -->
  <path d="M45 68 Q50 72 55 68" stroke="#386641" stroke-width="2" fill="none" stroke-linecap="round"/>
  
  <!-- Moustache (optionnelle) -->
  <path d="M42 62 Q44 64 46 62 M54 62 Q56 64 58 62" stroke="#386641" stroke-width="2" fill="none" stroke-linecap="round"/>
</svg>
